<?xml version="1.0" encoding="UTF-8"?>
<svg id="Layer_1" xmlns="http://www.w3.org/2000/svg" version="1.1" viewBox="0 0 1920 1080">
  <!-- Generator: Adobe Illustrator 29.3.0, SVG Export Plug-In . SVG Version: 2.1.0 Build 146)  -->
  <defs>
    <style>
      .st0 {
        fill: #fff;
      }
    </style>
  </defs>
  <path d="M937.97,492.23c-18.67,16.69-32.85,28.35-46.93,49.84-7.14,10.9-14.11,23.19-16.94,36.07-.22.99.94,1.69,1.72,1.05,4.95-4.04,10.47-7.19,15.8-10.72,8.26-5.46,11.67-6.52,19.96-10.95,9.92-5.3,18.01-14.48,28.37-19.36-15.47-15.41-9.44-16.72-8.86-20.77,15-21.15,23.62-24.6,42.92-17.82.28.1.51.3.63.56l4.75,10.04c.25.52.85.75,1.38.52,7.27-3.16,14.98-5.83,22.62-7.81,18.34-3.6,47.79-6.3,46.88-29.83-6.58.47-15.83,8.22-22.81,10.5-5.21,3.09-11.42,3.08-17.3,3.59-6.34,1.06-16.17-.61-15.18-8.7-1.65-10.46,7.14-19.6,16.33-25.98,3.38-3,7.22-5.76,11.77-6.61,14.04-3.13,28.09-5.44,42.02-.42.44.16.94.02,1.22-.37l27.34-37.44c.11-.15.18-.33.2-.51.28-2.33-.3-1.33-1.94-1.58-27.48-4.19-65.19.3-92.61,5.43-92.35,17.28-181.93,86.72-155.54,191.64,8.02,31.92,34.82,60.19,68.69,63.74,7.91.83,27.27-5.96,28.91.39,1.88,7.3,18.47,52.46,44.28,61.05.07.02.14.04.21.05l23.97,3.35c-14.7-21.49-22.73-69.94-34.43-74.38-6.82-2.59-17.63,2.74-24.88,3.29-32.86,2.52-57.86-.23-74.71-30.95-10.67-19.46-8.58-37.17-2.67-57.84,10.23-35.76,36.18-64.14,65.89-85.22.16-.11.35-.18.55-.2l1.48-.1c.63-.04,1.16.47,1.14,1.11M953.93,666.54c2.18,0,5.05,4.78,6.32,6.34,10.26,12.98,19.16,27.04,27.49,41.33,0-.01.02.03.08.14-.03-.05-.05-.09-.08-.14,15.13,30.75-28.92-34.65-30.23-39.29,0,.01-.02-.03-.08-.14.03.05.05.09.08.14-1.11-1.86-3.79-6.81-3.59-8.37ZM923.29,482.64c-9.43,7.01-20.72,19.84-28.09,29.21-23.62,29.97-42.3,73.26-31.19,111.51.38,1.3-1.52,1.92-2.02.67-2.33-5.78-3.34-12.67-3.74-18.01-3.29-43.86,22.51-94.71,55.43-122.8,3.26-2.78,18.04-13.65,21.55-12.75,8.12,2.07-10.49,11.12-11.93,12.19ZM954.29,490.32c-3.16-2.77-8.28-12.27-8.81-13.53-2.64-6.26-3.46-11.79-3.39-18.09.01-1.16,1.6-1.48,2.05-.41l11.11,26.4c.03.08.06.16.07.24l.73,4.41c.16.99-1,1.64-1.75.98ZM964.8,487.24c-3.23-3.31-7.31-11.73-7.84-13-3.54-8.43-4.23-15.49-5.57-24.2-.11-.74.56-1.39,1.28-1.21,1.65.39,2.22,2.17,2.99,3.79,4.42,9.17,5.69,23.31,10.83,33.4.56,1.1-.85,2.12-1.7,1.24ZM967.88,437.28l-36.18,18.06s-.1.05-.14.09c-43.03,30.16-76.65,76.32-80.96,130.24-.49,6.18.24,12.82-.01,19.1-.06,1.54.96,4.73-1.26,4.44-1.4-16.5-1.38-30.98,1.67-47.33,11.16-59.93,58.81-108.41,116.1-126.56,1.25-.4,1.98,1.39.8,1.97ZM1030.62,430.79,1025.66,418.47c.12-.09.26-.16.41-.19M1044.11,413.83c-1.21.19-2.37.31-3.27.44-28.77,4.08-50.15,5.66-77.91,15.07-46.37,15.72-87.9,49.06-108.34,94.08-.01.03-.02.05-.03.08l-3.76,10.19c-.47,1.28-2.41.65-2.03-.66,5.55-18.87,16.21-37.57,28.51-51.8,35.94-41.57,91.8-61.92,144.62-68.06,7.04-.82,14.61-.64,21.9-1.44,1.37-.15,1.67,1.89.3,2.1Z"/>
  <path d="M921.35,640.77c1.43,1.03,2.76,1.95,4.56,2.07,3.65.42,10.42.94,13.37.87,1.64.05,2.51-1.27,3.31-2.76,1.06-1.88,2.34-3.8,3.75-5.64,16.16-19.88,39.17-34.97,63.3-42.6.73-.24,1.42-.47,1.95-.62,1.29-.39,1.5-.32,1.12.25-8.98,15.02-25.22,42.49-34.09,57.33-.78.94-2.28,1.16-3.51,1.69-25.94,8.56-69.36,13.54-88.12-11.1-12.78-16.12-17.07-28.7-15.01-48.49.13-2.27.88-4.09,3.47-4,3.72-.06,9.09-.39,12.46.71,2.31.61,3.61,2.7,3.45,5.02-2.8,20.13,8.09,37.87,26.33,45.35,1.21.5,2.52,1.12,3.53,1.82l.15.1ZM997.04,605.72c-18.08,8.37-38.11,20.37-48.01,38.04,4.14-3.35,46.08-36.02,48.09-38.07l-.08.03Z"/>
  <path d="M862.39,484.64c2.55-24.72-14-46.89-38.21-46.81-4.09-3.69,16.86-7.6,18.61-7.86,11.21-1.68,24.04-1.83,35.19.19,4.56.82,24.76,6.26,27.73,8.33,2.03,1.41.97,1.4-.09,2.63-3.16,3.67-11.31,8.11-15.27,12.06-8.41,8.36-16.19,20.81-24.17,29.46-1.21,1.31-1.67,2.53-3.79,2.02ZM871.94,435.16c-7.57-1.07-17.03.79-24.84,0-.11,1.99,4.57,2.37,5.88,2.51,4.14.45,8.34-.3,12.43.32,7.89,1.2,16.25,4.86,23.71,4.53-3.76-2.83-12.7-6.73-17.19-7.36Z"/>
  <path d="M966.94,566.05c-2.88,2.12-8.9-11.12-10.69-13.56-9.63-13.06-33.58-39.54-4.62-47.13,11.96-3.13,21.24-3.58,23.62,9.75,3.26,18.2-1.87,34.24-8.31,50.94ZM968.58,515.22c-32.91-7.45-13.78,21.23-6.55,21.11l6.55-21.11Z"/>
  <path d="M914.6,561.05l-8.92,34.37c-1.75,1.98-6.33-7-7.74-8.18-7.23-6.05-15.89-2.01-24.1-.75,6.1-6.79,15.93-11.13,23.92-16.22,1.93-1.23,2.51-3.33,3.79-4.15,1.63-1.05,12.37-5.79,13.05-5.07Z"/>
  <path class="st0" d="M978.29,432.47l-46.32,23.12c-43.06,30.15-76.72,76.34-81.03,130.29-.49,6.18.24,12.82-.01,19.1-.06,1.54.96,4.73-1.26,4.44-1.4-16.5-1.38-30.98,1.67-47.33,11.86-63.68,64.92-114.44,126.96-129.61Z"/>
  <path class="st0" d="M1050.9,410.83c-1.25,2.91-6.84,3.25-9.71,3.65-28.77,4.08-50.15,5.66-77.91,15.07-46.38,15.72-87.92,49.08-108.36,94.12l-9.09,24.64c3.26-23.64,16.21-48.84,31.8-66.87,35.94-41.57,91.8-61.92,144.62-68.06,9.25-1.07,19.39-.43,28.64-2.55Z"/>
  <path class="st0" d="M978.28,485.93c-12.02-9.83-15.13-27.13-13.99-42.01,4.49,4.37,4.17,12.93,6,18.82,2.42,7.8,6.45,15.12,7.99,23.19Z"/>
  <path class="st0" d="M1036.83,422.22c4.54-1.42,9.72,10.81,4.77,12.46-9.41,3.14-12.12-7.32-4.77-12.46Z"/>
  <path class="st0" d="M997.4,605.61l-48.4,38.17c10.13-17.75,30.17-29.86,48.4-38.17Z"/>
  <path class="st0" d="M871.94,437.55"/>
  <path class="st0" d="M961.73,529.21"/>
</svg>