<?xml version="1.0" encoding="UTF-8"?>
<svg id="Layer_1" xmlns="http://www.w3.org/2000/svg" version="1.1" viewBox="0 0 1920 1080">
  <!-- Generator: Adobe Illustrator 29.3.0, SVG Export Plug-In . SVG Version: 2.1.0 Build 146)  -->
  <defs>
    <style>
      .st0 {
        fill: #fff;
      }
    </style>
  </defs>
  <line class="st0" x1="1044.93" y1="278.5" x2="1044.87" y2="278.4"/>
  <path class="st0" d="M997.83,471.46c1.62,1.16,3.89,1.57,5.88,2.06,4.22.89,8.47,3.02,10.3,3.1,2.42-.02.83-2.86-.16-3.85-1.94-2.08-2.91-4.38.36-5.53.99-.3,2.09-.16,3.03.3,2.22.5,6.93,8.1,8.53,5.15.38-.93.15-2.83-.5-5.04-12.86-36.95-32.62-64.22-31.62-25.49.11,8.51.76,15.27,1.8,24.12.22,1.97.76,4.02,2.24,5.08l.14.1Z"/>
  <path class="st0" d="M997.95,475.12c-1.16-1.77-3.4-3.32-5.64-3.98-4.32-1.48-8.01-1.35-5.95,3.54,3.56,8.66,16.42,14.54,15.09,7.74-.5-2.47-2.07-5.15-3.4-7.15l-.1-.15Z"/>
  <path class="st0" d="M972.28,478.87c-8.18-5.1-20.18,5.28-14.77,12.89,2.23,2.91,5.42,1.16,7.45-.99,2.63-2.9,4.33.95,6.79,1.85,1.46.62,2.96-.19,3.85-1.41,3-3.76,1.17-10.01-3.13-12.23l-.19-.11Z"/>
  <path class="st0" d="M996.51,415.25c-.04-4.09-.34-8.15-1.06-12.17"/>
  <path class="st0" d="M1030.96,471.68c3,.73,1.5-2.96,1.66-4.54.13-.9,1.18-1.38,2.54-1.98,1.22-.55,2.3-1.17,3.05-2.4,1.62-3.05,4.45-12.52-.26-12.12-.67-.07-2.98.59-2.6-.56.8-1.58,4.24-2.98,5.83-4.06,5.08-3.97-2.74-24.83-9.63-34.51-.72-1.02-1.94-2.54-2.85-2.73-2.9-.03,3.29,14.77,3.2,17.82.27,1.69.44,3.48.97,5.08.72,2.36,2.58,4.01,3.36,5.26,1.29,1.98-3.1,3.34-4.18,4.64-3.6,2.74-2.22,8.16-3.74,11.89-.99,2.91-5.07,4.24-4.37,7.66.22,1.11.77,2.28,1.31,3.33,1.7,2.95,2.93,6.05,5.6,7.2l.12.04Z"/>
  <path class="st0" d="M1046.57,504.49c3.26,8.17,9.13,14.85,13.18,23.27,1.65,3.05,2.19.78,2.02-1.52-.44-13.44-23.39-36.55-15.28-21.94l.08.18Z"/>
  <path class="st0" d="M1029.23,576.55c1.15.91,2.7.46,3.95-.56,1.8-1.29,4.31-3.65,6.43-5.17,2.15-1.64,4.97-2.94,6.17-2.98.26-.02.53,0,.66.19.24.52-.87,1.48-1.38,1.95-7.08,5.81-15.47,14.27-13.47,24.54"/>
  <path class="st0" d="M964.98,578.43c6.09-7.8,23.36-4.46,30.18,2.05"/>
  <path class="st0" d="M960.13,523.12c7.68-8.75,14.05,7.57,7.8,13.11-2.75,2.16-6.47.17-7.95-2.62-1.79-3.04-2.17-7.46.03-10.33l.12-.16Z"/>
  <path class="st0" d="M929.96,603.55c-7.77-15.83,24.5-50.98,31.61-39.48,1.39,2.23.04,4.95-2.07,6.43-12.17,7.47-22.04,17.91-26.16,32.64"/>
  <path class="st0" d="M955.33,505.38s-.05-.01-.07-.02c-.07-.03-.15-.1-.21-.18-.11-.02-.23-.05-.33-.09-.2-.08-.4-.23-.51-.42-.08-.15-.09-.3-.05-.46.03-.13.08-.25.14-.38-3.75-3.03-7.17-3.58-10.88-.4-2.15,1.37-4.58,3.32-5.12,5.91-.67,2.89,3.61,1.19,5.16,2.01,1.29.35,1.38,1.53.21,2.12-3.44,1.44-8.85.46-10.3,5.98l-.06.21c-4.55,16.54,18.14,40.5,12.81,27.24-2.85-6.19-8.18-12.32-6.45-19.79,1.5-9.66,16.75-16.86,15.84-21.57-.08-.04-.14-.09-.18-.16Z"/>
  <path class="st0" d="M930.81,562.47c6.64.62,5.39,11.85-.89,11.92-7.52.13-6.58-12.41.69-11.94l.2.02Z"/>
  <path class="st0" d="M902.57,514.96c3.3-5.57,11.67-.29,8.13,5.17-3.08,4.56-11.36.07-8.23-4.99l.11-.18Z"/>
  <path class="st0" d="M900.44,521.46c2.15-1.62,5.75.57,7.21,2.29,1.28,1.72-2.15,3.94-3.27,5.46-1.64,1.85-1.45,2.32-.22,3.41.7.63,1.49,1.57,1.9,3.04.87,3,1.65,6.67,2.04,9.93,2,14.9-9.48,1.06-9.34-18.26,0-1.91.35-4.67,1.55-5.76l.11-.1Z"/>
  <path class="st0" d="M908.93,603.2c18.68-39.39-50.72-38.16-23.86-3.41"/>
  <path d="M958.49,504.57c-.63.16-1.15.25-1.59.29-.13.04-.25.08-.38.12,0,.11-.05.21-.19.25,0,.01,0,.03,0,.04-.01.05-.04.08-.08.11-.02.02-.05.02-.08.04-.02.04-.05.08-.1.11.12,4.29-2,8.79-1.73,13.09.44,6.4,7.37,5.39,10.53-2.76,1.4-3.61-2.74-12.21-6.37-11.29Z"/>
  <path d="M1032.3,536.03c-2.99-1.9-5.76-3.83-7.3-7.11-1.62-2.8-4.69-4.55-8.31-6.37-2.59-1.36-5.76-2.41-8.3-.51-1.55.92-3.28,2.24-4.74,2.06-1.56-.22-.58-1.85-.06-2.72.61-.96,1.11-2.05.38-3.06-1.57-2.4-7.83-4.55-12.33-10.21-1.42-1.31-6.79-10.84-4.29-11.61,1.07.16,2.27,1.31,3.3,2.17,7.22,6.92,16.51,9.54,25.26,10.14,2.1.11,4.78.13,6.11-1.67,1.08-1.6.18-3.91.15-6.13-.15-1.31.38-3.46-.29-3.95-1.02-.84-2.76.36-3.68,1.32-.94.79-1.58,2.36-2.78,2.58-1.37-.82-2.59-4.25-4.47-4.74-1.2-.31-2.14.64-3.15,1.18-3.56,2.56-6.7-1.43-8.96-4.18-20.05-23.99-10.67-37.29,1.14-67.84,1.53-4.15,2.52-8.5,2.31-12.43-.91-12.83-9.78-23.26-19.77-27.28-20.49-9.07-46.68,3.6-49.32,27.41-.95,6.4-.79,13.19,1.78,19.18,2.18,5.15,5.66,7.59,8.47,11.68,1.76,2.51,3.36,5.82,4.31,8.96,4.48,14.33-3.53,24.92-16.86,19.17-3.56-.95-7.38-3.67-10.41-4.56-1.75-.46-3.59,1.54-5.08,2.29-4.41,1.99-2.03-8.59-3.39-10.76-.79-2.52-3.41-3.37-5-4.86-2.72-2.16-1.19-6.83-1.76-10.13-.65-4.34-3.19-5.6-7.19-5.84-.96-.16-1.78-.46-1.13-1.34,1.12-1.39,3.52-1.45,4.78-2.65,1.55-1.44,1.41-3.83,1.53-5.81,0-3.37.17-6.94.69-10.34.48-3.26.6-6.11-.08-6.74-2.1-2.77-13.24,20.77-11.39,31.59.64,3.23,4.82,3.91,6.8,5.58.51.64-.48,1.05-1.55,1.92-4.03,3.24-.64,8.91,1.08,12.63,1.35,2.86,1.31,5.55,2.77,7.41,2.56,2.98,6.79,3.79,9.97,6.04,9.52,6.01,18.77,13.19,28.3,5.65,1.28-.75,2.2-1.61,3.49-1.71.3.05.39.32.26.81-1.61,4.38-7.16,7.73-10.09,11.04-.88.93-1.7,1.96-2.66,2.76-1.93,1.77-4.67,1.5-7.1,1.43-3.7-.11-3.41,1.68-6.96.64-10.9-3.05-27.13.94-33.7,11.86l1.68,2.81c2-.48,3.8-1.4,4.81-3.2.77-1.04,1.25-2.29,2.52-2.77,2.91-.36,6.24.87,9.24,1.5,2.42.6,5.19,1.89,7.38.52,3.28-1.89,1.01-5.25.54-7.69-.09-1.26,1.47-1.09,2.32-.75,3.83,1.4.33,9.32,5.79,10.4,7.69.7,14.78-3.92,21.94-7.41,2.1-1.15,4.07-2.38,5.62-3.32,2.62-1.6,4.9-2.91,3.12,1.31-1.91,4.34-5.77,9.62-9.56,13.01-1.48,1.33-3.08,2.42-4.61,3.61-2.63,1.96-4.06,4.1-5.41,4.84-1.94,1.06-4.2-.03-6.33.11-3.7.11-9.6,3.99-9.52,7.95.22,1.42,1.95,2.87,2.96,4.42,1.21,1.63,1.78,3.32,2.9,3.41.95.12,2.23-.76,3.18-1.41,9.77-6.81,27.02-16.22,31.38-29.76.27-.86.74-2.19,1.24-3.14.07-.2.15-.39.25-.58,0,0,0,0,0-.01.05-.09.09-.18.13-.26.08-.15.16-.29.26-.44.15-1.86.93-4.6-.69-6.96-12.71-18.51,4.24-20.56,9.65-17.98,6.96,3.32,30.13-.81,19.91,14.43-.4.77-2.64,5.17-2.86,6-1.22,4.73-3.95,5.71-6.91,6.14,0,0,0,0,0,.01-.14.1-.24.22-.35.34-.3.37-.49.85-.64,1.3-.07.22-.13.44-.19.67-.03,15.85,9.29,27.66,20.3,35.34,1.41,1.08,3.51,2.15,3.57,3.99-.18,1.81-1.49,3.5-1.65,5.35-.17,2.83,0,4.48-2.22,7.46-1.8,2.97-13.69,15.38-3.04,8.46,25.94-15.54-4.28-39.69-10.17-60.1.18.15.56.74,1.1,1.63,6.93,12.69,20.58,23.56,33.4,27.88,1.36.47,3.13.9,4.28.29,1.17-.3,2.38-3.22,3.44-2.14.81.68,1.81,3.17,3.13,4.76.77.94,1.82,1.62,2.88,2.17.74.47,2.03.78,2.17,1.58.04.61-1.34,1.84-1.25,3.33.14,1.65,1.28,2.94,1.77,4.52.56,1.56.32,3.23-.07,4.84-.68,2.56-1.26,6.15-2.08,9.6-.24,1.41-2.3,7.79.4,6.42,2.16-1.39,3.48-3.47,4.86-6.23,4.32-9.13,5.11-24.22-1.3-29.14Z"/>
  <path d="M952.89,392.4c-6.28-1.31-3.26,3.52.21,5.47,1.59.98,1.17-.15.78-2.14-.26-.96-.33-2.74-.89-3.27l-.1-.07Z"/>
  <path d="M958.72,405.34c.83.34,1.58.09,2.36-.18,2.63-1.1,1.11-4.97-.48-7.65-.31-.47-.76-.98-1.26-1.11-2.51-.15-1.5,5.03-1.38,6.68.15,1.08.16,1.88.65,2.21l.11.07Z"/>
  <path d="M941.34,398.46c-2.14,1.88,5.37,7.54,7.38,6.42,1.12-.68.05-2.35-.9-3.6-1.42-1.94-3.84-3.67-6.35-2.89l-.13.07Z"/>
  <path d="M944.17,413.26c-3-.11-7.84-.05-9.67,2.95-.33.6-.36,1.03,0,1.02,2.63-.81,5.66-2.27,8.2-3.22,1.02-.41,1.66-.65,1.5-.73l-.04-.02Z"/>
  <path d="M991.37,413.46c-.02,1.55,4.37,4.72,6.02,4.42.72-.11,1.05-.86.93-1.52-.27-2.09-4.74-3.58-6.89-2.96l-.05.06Z"/>
  <path d="M950.39,436.97c1.75.6,3.9-.4,5.34-1.54,8.38-7.08-10.33-24.84-13.83-12.48-.35,1.28-1.19,3.54-.3,4.43,1.18.01,2.42-1.83,3.62-2.66,2.18-2.07,6.51-3.05,6.43,1.12.2,3.43-4.23,9.27-1.37,11.08l.12.05Z"/>
  <path d="M983.33,432.3c-2.46-3.42-3.89-7.66,1.37-8.35,2.8-.42,5.36,2.27,8.12,1.9,1.51-.39,1.46-2.69.02-4.11-.71-.7-1.58-1.17-2.52-1.52-6.16-2.31-14.83,1.28-15.29,8.4-.56,7.92,14.97,14.07,8.41,3.86l-.11-.17Z"/>
  <path d="M964.79,454.56c-1.06-.62-2.62-.97-3.83-.65-2.27.81,3.28,6.06,4.58,4.21.56-.87-.03-2.7-.63-3.45l-.13-.11Z"/>
  <path d="M981.07,453.7c-.14-.22-.47-.35-.92-.39-1.4-.09-3.38.4-4.56,1.31-1.65,1.24-1.43,3.99-3.55,4.97-1.74.8-3.85.27-5.73.46-1.82.11-4.49.91-5.63,1.81-1.72,1.72,1.53,3.52,2.99,4.13,5.76,2.34,10.19-3.73,15.12-8.76.8-.93,2.56-2.31,2.31-3.47l-.04-.07Z"/>
  <path d="M1008.99,530.29c.37-.21.6-.89,1.16-1.74.71-1.34,4.81-5.94,1.47-6.2-2.24.17-4.75,6.04-3.54,7.62.19.26.53.49.82.37l.08-.04Z"/>
  <path d="M918.68,523.42c-2.11,2.2-.04,4.88,2.17,6.42.35.23.78.41,1.18.34,2.87-1.03-.97-7.76-3.22-6.84l-.13.09Z"/>
  <path d="M1036.2,447.18c-1.24,1.16-2.88,4.28-1.18,3.54,6.29-4.06,5.63,2.37,4.04,7.68-.37,1.32-.86,2.82-1.69,3.84-1.22,1.73-4,1.53-5.39,2.8-.94,1.22,1.01,2.43,1.52,3.4,1.2,6.05-38.39,29.09-46.94,7.79-2.63-5.66-1.4-6.73,4.35-4.97,4.79,1.39,10.44,1.27,14.82,2.35,2-.01,9.83,5.3,8.46.44-.58-1.82-3.06-2.73-3.31-4.63.05-1.85,2.66-3.27,4.87-2.74,1.7.44,3.04,1.67,4.1,3.05,1.33,1.56,3.16,5.32,5.46,3.95,1.28-2.05-1.85-4.16-2.66-6-1.57-2.64-2.14-6.36-.98-8.56,1.55-2.92,5.96-3.39,7.03-6.66.96-3.76-.99-8.52,3.4-11.43,1.02-1.08,6.12-2.6,4.46-4.33-1.1-1.09-2.72-1.99-3.48-3.45-1.1-1.81-1.01-4.93-1.45-7.69-.6-4.16-1.67-8.14-3.03-12.2-.37-1.12-.87-2.65-1.02-3.57-.15-.84-.06-1.31.31-1.29,8.85,6.77,18.95,32.28,12.14,36.15-1.23.82-2.6,1.33-3.7,2.42l-.11.1Z"/>
  <path d="M951.6,521.08c19.78,6.32-13.66,12.24-9.93,31.9.58,4.57,2.7,8.8,5.15,12.3,1.75,2.42,3.02,5.89-1.41,3.33-9.34-5.8-16.72-32.3-3.87-34.69,1.4-.34,3.44-.57,4.37-1.42,1.02-.89-.2-1.76-1.28-1.75-1.53-.13-3.53.81-4.23.06-.89-1.28.17-3.08.92-4.26,1.01-1.52,2.5-2.26,3.96-3.1,1.72-1.32,3.69-3.17,6.16-2.42l.17.04Z"/>
  <path d="M1036.64,495.74c18.98,3.37,28.21,37.96,22.61,29.55-1.91-3.19-3.53-7.26-5.93-10.13-1.74-2.17-3.41-3.15-5.03-4.64-.93-.95-1.22-2.35-2.27-3.63-.85-1.01-2.27-2.17-3.59-1.74-1.06.45.24,2.06-.83,2.58-1.15.45-2.31.06-3.54-.59-3.62-1.73-2.95-7.38-6.08-8.82-1.05-.41-3.25-.14-3.18,1.27.11.81,1.58,1.54,2.61,2.79.63.74.94,1.76.66,2.71-.71,2.49-4.21,3.53-6.33,2.13-1.61-.96-1.72-3.21-1.67-5.87.05-2.33.25-4.52,1.64-5.53,3.17-1.77,7.26-.62,10.69-.11l.22.05Z"/>
  <path d="M904.42,551.31c.68.88,2.17.65,2.76,2.45.88,2.96.62,6.28,1.51,9.73.39,3.14,3.94,7.15,4.53,9.35.26,2.26-3.14.55-4.19-.45-12.3-10.34-10.55-44.62-1.14-27.5,1.1,2.5-2.94,4.54-3.51,5.87-.08.17-.04.33,0,.5l.03.05Z"/>
  <path d="M977.12,496.23c-.53,1.29-1.83,2.05-3.23,1.99-1.67-.07-1.85,1.92-2.79,2.43-3.41,1.86-6.88,2.53-10.55-.64-13.15-11.36,3.67-33.18,17.72-9.57,1.7,2.85,1,2.99-.02,3.89-.37.32-.65.73-.84,1.19l-.3.71Z"/>
  <path d="M911.99,540.82c-2,2.04-5.56.32-7.55-.98-1.26-1.06-1.03-2.76-.44-4.08,3.45-7.1,12.31-1.25,8.12,4.91l-.13.15Z"/>
  <path class="st0" d="M986.65,392.17c7.95,1.44-12.37,10.21-9.25,5.05,1.24-2.05,4.93-1.79,6.57-3.58"/>
  <path class="st0" d="M979.86,453.85c.29.69-.26,1.87-1.24,3.11-3.36,4.29-8.27,8.08-13.83,8.47-1.99.34-6.78-1.51-4.11-3.56,1.53-.83,3.17-1.9,5.06-2.11,1.84-.25,3.9.45,5.6-.4,2.01-1.05,1.69-3.76,3.22-5,1.25-.98,4.1-2.01,5.25-.61l.04.09Z"/>
  <path class="st0" d="M972.2,395.87l.02-.12"/>
  <path class="st0" d="M964.24,395.62c-.88-.38-.92-1.28-1.18-2.51-.22-1.86-2.04-7.77,2.5-7.59.91.15,1.72.73,2.28,1.27,2.88,3.06,5.62,7.45.86,8.69-1.37.36-2.93.54-4.26.21l-.2-.08Z"/>
  <path class="st0" d="M947.42,392.61c2.51-.66,4.93.8,6.35,2.45.95,1.06,2.02,2.47.9,3.05-2,.95-9.52-3.84-7.38-5.44l.13-.06Z"/>
  <path class="st0" d="M978.82,398.1"/>
  <path class="st0" d="M971.27,400.76"/>
  <path class="st0" d="M918.8,523.33c2.25-.92,6.09,5.82,3.22,6.84-.4.07-.83-.11-1.18-.34-2.21-1.54-4.28-4.21-2.17-6.41l.13-.09Z"/>
  <path class="st0" d="M1008.9,530.33c-.29.12-.64-.11-.82-.37-1.24-1.62,1.41-7.71,3.69-7.63,3.05.47-.94,4.89-1.62,6.21-.56.85-.79,1.54-1.16,1.74l-.08.04Z"/>
  <path class="st0" d="M960.61,455.67"/>
  <path class="st0" d="M972.27,494.52c-10.11,0-11.28-3.37-7.29-6.87l.13-.16c1.91-2.32,3.94.74,6.59,2.05"/>
</svg>