<?xml version="1.0" encoding="UTF-8"?>
<svg id="Layer_1" xmlns="http://www.w3.org/2000/svg" version="1.1" viewBox="0 0 1920 1080">
  <!-- Generator: Adobe Illustrator 29.3.0, SVG Export Plug-In . SVG Version: 2.1.0 Build 146)  -->
  <path d="M1162.61,386.87c1.09-1.93-1.24-3.93-2.83-2.48-24.55,22.36-87.94,115.61-49.59,93.35,1.24-.72,3.96-3.51,4.24-1.74-4.34,42.11,9.58,87.28-41.69,86.28-4.94-.32-10.14-.05-14.85-1.57.65-5.85-1.31-109.65.78-112.26,3.13-2.6,24.61,24.46,22.73,15.49-3.06-16.79-13.19-38.64-18.34-56.15-18.07-97.1-32.91,11.09-48.79,57.85,42.52-67.77,12.07,79.1,17.88,97.33-11.29-2.06-45.75-8.37-48.52-8.89-2.61-18.78-6.17-64.92-7.79-78.79-.08-1.93-.98-3.63,1.64-2.55,4.49,2.12,24.87,11.47,22.47,6.18-38.55-85.14-83.45-109.96-70.64-81.76,26.19,57.63,41.71,137.58,27.92,185.89-6.58,23.06,50.64,1.5,71.38,15.75,2.29,1.57,5.42.35,4.25.5-10.16,1.31,19.25,3.57,29.18.86,149.31-40.88,36.99-100.6,100.56-213.28Z"/>
  <g>
    <path d="M1028.71,911.67c-10.51-23.56,18.01-11.28,30.21-14.2,8.51,22.99-17.77,11.67-30.21,14.2Z"/>
    <path d="M1049.72,613.13c-5.89.06-11.82.18-17.84.55-5.02.09-6.75,3.08-6.54,7.81.08,5.17.58,10.56.64,14.22-.08,2.31.19,5.01,3.13,4.82,3.57.02,9.06.08,11.23-3.66,3.87-6.1,9.9-12.33,12.87-4.8,1.17,2.41,1.3,5.99,2.06,8.14.67,1.62,3.02,1.12,4.48.86,2.59-.54,4.88-.36,5.04-2.94-.09-5.07-.69-10.03-.99-15.17-.29-11.59-4.91-9.67-13.9-9.83h-.18Z"/>
    <path d="M1060.32,755.93v56.63c-21.35,5.92-36.73,2.17-30.19-21.5,0,0,20.49-3.27,20.49-3.27-27.83-.68-21.53-10.6-21.92-31.87,0,0,31.62.02,31.62.02Z"/>
    <path d="M1058.37,706.38c-1.52,32.08,11.08,44.09-31.61,42.47,1.52-32.08-11.08-44.09,31.61-42.47Z"/>
    <path d="M1067.62,649.75v23.6c-15.99-2.32-58.3,9.58-48.71-19.63,2.08-7.29,43.57-2.8,48.71-3.97Z"/>
    <path d="M1062.76,857.4c-6.85,12.78,8.64,32.66-10.82,33.15-28.26,3.66-34.56-8.76-3.76-13.07-21.57,3.86-20.64-1.44-21.9-20.08,0,0,36.47,0,36.47,0Z"/>
    <path d="M1062.76,822c5.74,33.02-13.22,22.02-36.48,23.6-5.74-33.02,13.23-22.01,36.48-23.6Z"/>
    <path d="M1067.62,696.94h-46.2l3.84-14.3c9.61,2.71,51.05-8.1,42.36,14.3Z"/>
  </g>
  <path d="M856.52,856.99"/>
  <path d="M1189,311"/>
</svg>