<?xml version="1.0" encoding="UTF-8"?>
<svg id="Layer_1" xmlns="http://www.w3.org/2000/svg" version="1.1" viewBox="0 0 1920 1080">
  <!-- Generator: Adobe Illustrator 29.3.0, SVG Export Plug-In . SVG Version: 2.1.0 Build 146)  -->
  <defs>
    <style>
      .st0 {
        fill: #fff;
      }
    </style>
  </defs>
  <path class="st0" d="M1003.7,431.5c-59.3,48-78.9,67.2,4.9,8.6"/>
  <path class="st0" d="M995.4,424.1c-22.1,34.3-55.5,11.6-80.4,24.2-.3.1-.4.3-.4.5,3.3,7.1,24.2,25.3,35.8,21.3,14.8-16.5,61.9-34,51.7-51.7-1.7-.9-4.3,3.1-6.6,5.6v.2Z"/>
  <path class="st0" d="M999.4,416.2c.5-4.6-3.1-25.8-9.7-23.2-2.8,7.3-18.6,45.7-18.6,47.2,9.1-7.7,19.2-16.2,28.3-23.9h0Z"/>
  <path class="st0" d="M976.9,508.3c3.3-.5,6.9-1,10.8-1.4-3.8-.8-7.5-.2-10.8,1.4Z"/>
  <path class="st0" d="M1028.9,503.8c-6.6.5-13.3.9-19.8,1.4,0,0-.1.1-.2.2-.2.2-.4.4-.5.7,0,0,0,0,0,0,0,.1-.1.2-.2.3,0,0,0,0,0,0-.2.2-.3.4-.6.4,0,0,0,0,0,0-.2.4-.5.8-.8,1.1-.8.9-2,1.6-3.6,1.6-2.6,0-4.2-1.6-4.7-3.6-1.1,0-2.2.2-3.2.3,0,0,0,0,0,0,0,0,.6,0,.9,0,.2,0,.3,0,.3.2s-.2.2-.5.2c0,0,0,0,.1.1,0,.2-.2.2-.3.2,0,0,0,0,0,0-.2,0-.4,0-.7,0,0,0,0,0,0,0,0,0,0,0-.1,0,0,0-.1,0-.2,0,0,0,0,0,0,0,0,0,0,0-.1,0,0,0-.1,0-.2,0,0,.2-.1.4-.5.4s0,0,0,0c0,0,0,0,0,0-.2,0-.4,0-.5-.2,0,0,0,0,0,0,0,.1-.2.2-.4.2s0,0-.1,0c0,0,0,0,0,0,0,0,0,0,0,0,0,0,0,0,0,0-.1,0-.3,0-.4-.1-.2-.1-.4-.3-.5-.5-1.4.1-2.7.3-4,.4.5.1,1,.2,1.5.4,8.2,2.1,16.6,8.9,24.2,15.3,10.9,8.9,20.3,18.7,26.3,10.4-2.9-10.4-7.3-20.2-10.8-29.2Z"/>
  <path class="st0" d="M964.8,520.2c.4.3.6-.3.8-.6.6-.9.9-1.6,1.6-2.5,2.5-3.8,5.8-7,9.7-8.8-13.8,2.2-20.5,5.6-12,11.9Z"/>
  <path class="st0" d="M1058.4,448.9c-3.7,2.9-8.4,6.1-13.3,9.5,2.3,1,4.6,2,6.8,3.1,4.9-3.2,9.3-6.6,12.2-9.9.3-.3.2-.7-.2-1.1-.9-1.1-2-2.1-3.4-2.4-17.2-3.4-33-2.9-50.4-4.2,4.2,2,16.3,6.5,29.7,12.3,4.8-2.6,10.9-5,18.4-7.2h0Z"/>
  <path class="st0" d="M962,512.9c-.9,1-8.7,10.1-6.5,8.5,2.6-1.8,13.9-13.1,19.9-16.8,5.9-3,12.2-6,17.9-8.7,31.2-15.1,16.2-.8,34.3,28.1,1.6,2.6,3.1,4.9,5,7.4,0,0-.2-.5-.3-.8-3.2-6.6-6-13.3-8.3-20.2-14.1-43,6.5-36.3-61.8,2.5h-.1Z"/>
  <path d="M1002.8,498.3c-1-.1-2,.3-2.3,1.2,0,0,0,0,0,0-.3.3-.5.7-.7,1,.4-.6.2-.3,0,.1-.3.5-.7.8-1.2.9-1.1.4-2.3,1.2-3.4,2.2,0,.1-.1.2-.2.3,0,0,0,.1,0,.2,0,.1,0,.2-.1.3,0,.2,0,.3,0,.5,0,0,0,.1,0,.2,0,.2,0,.3,0,.5,0,0,0,0,0,.1,0,0,0,0,0,.1,0,0,0,0,0,0,0,0,0,0,0,.1.2,0,.3.1.5.2,0,0,.2,0,.4,0,15-1.5,12.2-7.2,7-8Z"/>
  <path d="M1064.8,451.7c-.8-2.1-2.8-3.3-4.8-4.3-.2,0-.3-.2-.5-.2-45.4-10.4-70.6,12.3-106.1,36-.5.3-.9.9-1,1.5-1.7,11-40.3,56.3-24.5,59.9.4,0,.8,0,1.1,0,50.3-16.3,49.4-56,97-7.3,0,0,.2.2.3.3,22.2,15.6-4.8-46.1-9.7-54.9-.4-1-1.8-1.2-2.2,0v.2c-3.7,15.9,7.9,31.2,13.3,46.2.4.8.2,2-.8,2-.5,0-.9-.3-1.2-.6-5.7-6.1-8-15.1-9.8-23-1.7-7.5-3-14.1-6.2-16.6-5.3-3.6-12.6,3.8-16.8,7.3-.5.5-.8.7-1.4.9-11.5,2.7-21.2,8.4-30.1,15.7-.5.5-1.5.7-1.9,0-.3-.5-.1-1.1.3-1.5,5.9-5.5,12.7-9.4,20-12.6,2.1-.9,4.3-1.8,6.5-2.7,23.4-8.1,40.7-36.2,62.4-46.8,1.2-.5,4.8-1,5.2-.4,2.8,2.2-35.8,22-33,27,.4.3,1,.3,1.4,0,1.6-1.2,3.3-2.4,5.2-3.3,0,0,0,0,0,0,.2-.1.4-.2.6-.3.1,0,.3-.2.4-.3,0,0,.1,0,.2,0,.4-.3.8-.6,1.4-.8.2-.1.4-.3.7-.3.2-.1.4-.2.6-.2,0,0,.2,0,.2,0,0,0,0,0,0,0,.2-.1.5-.2.7-.3.2-.1.5-.2.7-.2.2-.1.5-.2.8-.3.4-.2.9-.4,1.3-.5,6.3-2.8,13.4-4.1,20-6.7,0,0,.2,0,.2-.1,4.9-2.6,11.7-5.6,9.6-12.4ZM991.5,504.3c0,0,0-.1,0-.2,0-.2.1-.4.3-.6.2-.4.4-.8.9-1.1,5.4-3.1,12-6.7,13-6.7,3,0,4.6,2.2,4.8,4.5,0,.1,0,.3.1.4,0,.2,0,.5,0,.7,0,.5-.1,1.1-.3,1.5-.3.9-.8,1.8-1.4,2.5-.2.2-.4.4-.5.7,0,0,0,0,0,0,0,.1-.1.2-.2.3,0,0,0,0,0,0-.2.2-.3.4-.6.4,0,0,0,0,0,0-.1.2-7.1.3-13.5.3,0,0,0,0,0,0s0,0,0,0c0,0,0,0,0,0,0,0,0,0,0,0s0,0,0,0c-.4,0-.7,0-1.1,0,0,0,0,0,0,0,0,0,0,0,0,0,0,0,0,0-.1,0,0,0,0,0,.1,0,0,0,0,0,0,0,0,0,0,0,0,0,0,0,0,0,0,0,0,0,0,0,0,0-.1,0-.3,0-.4-.1-.3-.1-.5-.4-.6-.6-.2-.3-.2-.5-.2-.8,0-.2,0-.5,0-.7,0-.2,0-.5.1-.7Z"/>
  <path d="M972.8,493.3c8.4-10.2,51.9-43.9,48.5-46.4-.2-.4-2.4,0-4.5,1-1.3,1-2.2,2-3.5,3-37.4,32-49.3,22.1-65.3,69-.9,2.2-1.7,4.9-1.3,7.3,1.7,8.1,15.3-46.4,26.9-44.8-.3,1.1-1.6,3.6-2.3,5.1-.7,1.6-1.6,3.4-2.2,4.8.3-.2,11.4-8.7,10.4-7.9-1.9,2.4-5.3,6.7-6.9,8.9h0Z"/>
  <path d="M1033.5,453.9c12.7-17-21.3,13.4-24.9,16.2-6.6,5.4-16.6,14.6-23.2,18.1-4.1,8,6,1.2,10.4-2.1,10.8-7.9,29.4-24.3,37.7-32.2h0Z"/>
  <path d="M1014.5,513.8c-1.3-2.2-5.9-4.3-4.6-7.2h0c1.4-1.3,2.5-2.7,2.3-4.3-.2-1-.9-1.7-1.8-2,0,0,0,0,0,0,0,.1,0,.2.1.4,0,.2,0,.5,0,.7,0,.5-.1,1.1-.3,1.5-.3.9-.8,1.8-1.4,2.5-.2.2-.4.4-.5.7,0,0,0,0,0,0,0,.1-.1.2-.2.3,0,0,0,0,0,0-.1.2-.3.4-.6.4,0,0,0,0,0,0-.2.4-.5.7-.8,1.1,0,0-.1.1-.2.2,0,0,0,0,0,0,0,0,0,0,0,0,2.3,2.4,4.3,6.7,8.1,6.2,0-.1-.1-.4-.2-.5Z"/>
  <path d="M1001.8,417.4c14.9,14.2-49.2,46.3-54.8,53.8-2.1-1-4.4-2.5-6.5-3.6-7.3-4.2-19.2-10.9-24.1-16-3.4-3.7-.8-5.2,5.2-5.8,19.2-1.6,69.7,1.9,80.1-28.3h0ZM964.8,448.4c-1.7,0-3.1,1-4.8,2-2.2,1.3-4.7,3.1-7.3,4.9-5.1,3.7-10.1,7.8-11.9,9,7.5,1.6,21.2-10.7,23.9-15.8h0ZM950.8,451.4c-8.1-2.3-15.8,2.9-24,2.6,4.6,7.6,18.7-1.5,24-2.6h0Z"/>
  <path d="M1008.6,440.2c-4.2,0-57.4,47.8-59.4,33.3,18.5-12.6,40.5-25.2,54.6-42.2"/>
  <path d="M999.5,415.7c-2.5,2.1-12.6,10.6-16.9,14.3-4.2,3.5-8.7,7.4-11.8,9.9,1.3-.9,17.8-51.5,21.9-47.5,1.5,1.4,2,3.3,3.2,6.3,1.6,4.5,4.2,12.8,3.5,17h0ZM994.6,408.2c.4-6.3-7.2-6.3-2.9.2-5.3.8-7.2,7.1-9.9,11,3.4-2.9,9.6-8.3,12.8-11.1h0Z"/>
  <path class="st0" d="M974.2,494.6c-1.8,1.4-10.1,7.7-9.4,7.1,2.7-5.6,6.4-13.5,8.9-19.3-12-2.4-27.6,61.5-27,41.8,14.4-48.7,29.4-41.8,67.5-74,1.4-1.2,2.7-2.6,4.5-3.1.9-.3,2.2-.7,2.7-.2,3.5,2.8-39,37.4-47.2,47.7h0Z"/>
  <path class="st0" d="M1033.4,454.9c-.4.6-55.1,51.1-48.3,34.6.1-.4.4-.4.7-.6,2.7-1.5,4.6-3.1,7.4-5.3,6.7-5.3,15.5-12.9,22.6-18.9,5.1-4.3,12-10.2,16.8-13.5,4.5-3.1,4.9-2,.8,3.5h0Z"/>
  <path d="M1014.6,513.9c-1.2-2.3-6-4.4-4.7-7.4h0c3.1-2.6,2.8-5.5.5-6.4,0,0,0,0,0,0,0,.1,0,.2.1.4,0,.2,0,.5,0,.7,0,.5-.1,1.1-.3,1.5-.3.9-.8,1.8-1.4,2.5-.2.2-.4.4-.5.7,0,0,0,0,0,0,0,.1-.1.2-.2.3,0,0,0,0,0,0-.1.2-.3.4-.6.4,0,0,0,0,0,0-.2.4-.5.7-.8,1,0,0-.1.2-.2.2,2.5,2.6,4.2,6.6,8.2,6.1.1,0,0-.3-.1-.4Z"/>
  <path class="st0" d="M964.8,448.4c-4.1,6.7-16.6,17-24,15.9,3.7-2.9,7.5-5.8,11.7-8.9,5.1-3.7,10-7.1,12.3-7h0Z"/>
  <path class="st0" d="M950.8,451.4c-6.5,1.6-19.2,10-24,2.6,8.1.3,15.9-4.9,24-2.6h0Z"/>
  <path class="st0" d="M994.6,408.2c-3.2,2.8-9.3,8.2-12.8,11.1,2.7-3.9,4.6-10.2,9.9-11-4.3-6.5,3.3-6.5,2.9-.2h0Z"/>
</svg>