<?xml version="1.0" encoding="UTF-8"?>
<svg id="Layer_1" xmlns="http://www.w3.org/2000/svg" version="1.1" viewBox="0 0 1920 1080">
  <!-- Generator: Adobe Illustrator 29.3.0, SVG Export Plug-In . SVG Version: 2.1.0 Build 146)  -->
  <defs>
    <style>
      .st0 {
        fill: #fff;
      }
    </style>
  </defs>
  <path class="st0" d="M913.59,424.39l.08.17c3.59,7.58.55,8.9-6.24,5.36-3.88-1.87-4.73-5.59-5.07-9.26-.44-2.13-1.81,1.19-2.26,1.89-4.45,8.31-10.42,21.89.41,27.88,4.13,2.43,9.55,1.27,12.39-2.63,4.04-6.33,6.53-6.34,11.93-1.32,2.52,2.41,4.05,5.5,7.08,6.89,1.61.81,3.68,1.2,5.24,1.98,4.22,2.33-2.04,3.62-4.08,3.74-10.96,1.36-22.79,3.33-33,1.15-2.15-.31-5.12-1.61-7.09-.63-1.06.81.09,2.17.88,2.83,4.93,4.85,21.44-.02,23.47,7.51.36,2.26-2.03,2.57-3.95,2.37-2.96-.46-7.49.51-5.74,4.36,1.58,2.97,7.58,3.25,10.56.04,1.79-1.79,2.4-4.37,3.25-6.65.66-1.83,2.53-5.42,4.29-3.06,1.98,2.92,1.12,9.79-.22,13.35-16.93,44.83-72.25-58.06-15.41-80.2,4.09-1.45,12.27-5.54,15.63-2.31,2.33,2.6,2.24,6.91,1.18,10.08-.94,2.68-3.24,4.54-5.4,6.8-1.8,1.51-3.63,5.55-6.24,3-1.5-1.37-2.56-3.56-4-4.83-.26-.2-.48-.35-.74-.22-1.15.97,1.69,8.99,3.06,11.73Z"/>
  <path class="st0" d="M900.15,450.93l-.14-.14c-6.15-6.15.87-20.18,9.42-14.08,8.37,6.09-1.32,21.85-9.28,14.22Z"/>
  <path class="st0" d="M937.56,473.9l.03.18c-5.41,38.6,34.15,25.38,19.3,7.19-.59-.61-.95-1.23-1.52-.94-.66.8-.9,2.13-1.69,2.87-1.48,1.52-.72,1.45.83,1.64,5.96.56-.74,15.71-7.75,9.65-5.13-4.8-9.97-18.84-2.46-23.13,4.28-2.33,11.22-.52,16.03,3.94,8.58,7.55,5.71,19.85-1.2,27.75-9.72,11.96-17.04,4.56-27.15-.83-2.28-1.18-4.8-2.22-7.45-2.91-1.22-.32-3.76-1.01-2.43-2.65,8.41-4.79,6.86-18.18,6.59-27.47-.06-1.34.09-2.97,1.62-3.37.71-.22,1.56-.22,2.33-.24,6.19-.1,12.9-1.98,18.22.8.51.29,1.77.92,1.04,1.46-3.49,1.08-9.89.83-13.66,1.39-3.24.44-1.16,2.82-.68,4.68Z"/>
  <path class="st0" d="M912.36,553.32l-.04-.13c-.59-1.06-1.77.14-2.06.95-.95,2.09-1.35,7.49-4.5,4.17-9.69-16.15-2.01-48.15,20.05-43.5,6.76,1.03,11.57,7.65,11.08,14.36.04,6.14-5.15,14.09-11.7,9.03-2.77-2.03-.61-6.5,2.11-5.73.52.13.79.52.96,1.04.11.36.41.93.77.53,3.69-21.95-26.27-4.41-12.23,12.46.44.5.82.87,1.26,1.31,1,1.12,3.65,1.76,2.54,3.46-1.83,3.33-6.84,13.11-10,13.04-.83-.2-.93-1.12-.82-2,.37-2.72,2.8-6.25,2.56-8.97Z"/>
  <path class="st0" d="M966.98,541.47l-.03.16c-.5,2.37-2.32,4.41-3.96,6.18-6.78,7.08-13.77,12.42-23.23,14.66-4.71,1.21-13.73.54-13.48-5.07.36-1.52,1.92-2.36,3.36-2.78,3.68-1.09,11.16-.97,16-3.46,5.41-2.35,9-7.21,12.96-11.34,2.69-2.97,8.91-3.64,8.39,1.63Z"/>
  <path class="st0" d="M968.68,546.78l.06.05c1.02,1.22-.19,3.72-.81,5.16-3.1,6.43-9.45,12.19-15.91,14.36-1.95.92-10.73,1.8-8.13-2.23,1.54-1.75,3.96-2.81,6-3.99,4.12-2.2,8.01-5.29,11.58-8.7,1.75-1.39,5.02-5.34,7.22-4.63Z"/>
  <path class="st0" d="M950.98,679.75c-.84-25.53-5.92-50.9-9.01-76.25.04-8.53,11.45-11.75,18.21-9.59,22.3,7.74-6.68,69.77-3.41,96.04"/>
  <path class="st0" d="M976.12,606.04c2.37-2.21,5.73-3.24,9-2.41"/>
  <path class="st0" d="M1000.93,583.47c-2.41.1-3.96-2.23-3.99-4.33-.11-2.47-.23-3.56-2.43-3.06-3.79,1.11-5.67,6.33-3.31,9.66,1.41,2.65,5.92,4.06,8.1,5.23.93.56,1.33,1.2.45,1.95-1.78,1.41-6.11,1.7-8.58.92-17.46-4.49-.47-37.12,11.79-22.93l.13.17c3.13,3.57,3.41,11.46-2.17,12.39Z"/>
  <path class="st0" d="M921.49,605.92c23.89-22.54,25.45,64.75,29.49,87.58"/>
  <path class="st0" d="M870.06,611.36c-3.95-9.55,3.57-12.77,11.71-15.7,3.45-1.32,6.44-4.08,9.89-5.53,11.21-4.44,21.68,11.1,12.78,19.72"/>
  <path class="st0" d="M1019.64,573.46h-.22c-1.77.03-3.65-.48-4.97-1.62-3.14-2.66.78-7.65,6-7.63,2.83-.15,6.5,1.78,5.49,5.04-.72,2.53-3.65,4.15-6.3,4.22Z"/>
  <path class="st0" d="M1010.39,520.58v-.17c1.69-11.35,10.96-1.79,5.71,1.49-1.75.92-5.69,1.6-5.71-1.32Z"/>
  <path class="st0" d="M1002.4,485.25l-.2-.03c-9.02-1.67-5.38-16.65,3.08-15.69,10.07,1.09,6.79,17.09-2.88,15.73Z"/>
  <path class="st0" d="M919.91,573.33l-.18-.11c-4.9-2.87-5.28-5.8-1.69-10.8.79-1.21,1.81-2.64,2.73-3.65.65-.62.99-1.09,1.61-.92,1.16.98.71,4.73,1.8,7.54.19.62.52,1.32.8,1.8,1.05,1.79,1.37-.48,3.21-.33,1.21.12,2.43.73,3.62,1.11,4.06,1.45,8.31,1.3,12.48,2.02,15.73,3.68,28.38-13.64,24.98-28.59-.54-3.7-3.19-6.24-5.08-9.24-2.55-4.8,5.14-5.34,7.76-3.24,2.46,1.62,3.17,4.69,3.71,8.09.99,5.31.54,11.03,1.06,16.21.98,3.43,4.45-3.23,4.55-4.94.52-2.45-.04-4.97-.72-7.37-2.26-7.51-3.87-16.55-11.79-17.13-5.05-.42-10.69,1.44-6.88-5.96,4-7.18,8.77-14.86,14.22-20.64,2.33-2.04,3.88-5.53,5.34-7.88,1.47-1.96,3-1.02,4.9.89,34.38,39.47-19.78,109-66.43,83.11Z"/>
  <path class="st0" d="M978.23,484.29l-.03.08c-4.33,11.65-8.95,25.52-20.16,32.25-1.12.58-2.27,1.41-3.18.16-1.72-2.08,2.79-6.49,6.98-12.83,4.64-6.63,7.82-15.84,5.14-24.07-.29-1.82-2.83-5.4-1.3-6.69,2.44-1.44,13.49,7.22,12.55,11.1Z"/>
  <path class="st0" d="M894.98,491.58c.02.12-.17-.01-.38-.13-.85-.49-1.66-.97-2.64-1.54-1.39-.82-2.91-1.72-3.89-2.3-.32-.17-.69-.48-1.07-.42-.59.1-.82,1.4-1.42,1.42-4.5-2.01-3.71-17.17-4.65-21.67h-.04c-1.54,1.39-4.06,5.28-5.61,6.27-1.49-11.01-4.76-26.28,4.44-34.14.3-.25.47-.25.48.17.03,16.98,5.38,36.31,14.77,52.34Z"/>
  <path class="st0" d="M878.89,409.56l.05-.12c2.12-3.68,12.66-4,17.02-4.57,10.95-1.24,3.41,5.05-1.18,7.46-3.78,1.98-7.98,3.41-11.66,2.43-2.23-.53-5.07-2.72-4.24-5.2Z"/>
  <path class="st0" d="M938.67,371.37c3.25.6,9.78,8.48,6.18,10.88-3.25,2.19-20.97,14.43-24.75,15.41l-.2.05c-6,1.13-21.68,8.05-26.05,1.92-.87-3.38,8.49-3.78,10.76-5.18,3.5-1.37,6.54-3.31,10.15-4.34,4.62-1.42,11.06-2.61,14.95-1.73"/>
  <path class="st0" d="M870.8,437.86l.07-.22c.46-1.5.78-2.68.91-4.15.3-4.45-2.93-7.35,1.16-11.12,2.02-2.05,11.96-9.11,14.6-6.46,1.12,1.41-.41,5.3-1.88,8.52-2.72,6.02-6.1,11.78-10.77,16.91-1.05,1.04-4.74,5.22-5.83,3.42-.47-1,.77-3.99,1.74-6.91Z"/>
  <path class="st0" d="M1046.05,622.79c-25.55,7.26-28.8-32.96-7.92-40.35l.2-.08c25.44-11.66,49.65,23.43,24.33,37.87"/>
  <path class="st0" d="M1043.57,610.06c-4.58-3.36-2.15-11.83,3.75-11.71,8.17-.75,11.23,8.6,8.01,16.13"/>
  <path class="st0" d="M1055.35,608.99c.74-5.34-5.31-9.85-6.03-8.55-.11.21-.04.6.15,1.14,1.15,2.48,1.73,6.04-.39,8.11"/>
  <path class="st0" d="M1062.65,619.24c5.17-12.37,1.31-29.86-13.35-31.26-3.13-.35-6.4.3-9.03,1.95-8.98,5.3-11.56,20.47-1.48,25.91"/>
  <path class="st0" d="M941.07,399.49c-.77,0-2.53-.32-2.5-1.42.03-1.11,1.65-1.42,2.5-1.42.77,0,2.53.32,2.5,1.42-.03,1.11-1.65,1.42-2.5,1.42Z"/>
  <path class="st0" d="M922.01,428.37l-5.07,1.57c.34,2.65.84,7.51,4.07,7.43.42-2.83,1.77-5.7.99-9Z"/>
  <g>
    <path d="M970.23,413.14c-.83.52-1.89.78-2.6,1.47-.62.61-.97,1.46-1.53,2.16-1.27,1.73-3.04,4.22-4.67,3.17-2.63-1.69-7.38.29-10.19,3.23,0,0-.01.02-.02.02.05.13,0,.25-.17.31h0c-.09.23-.14.47-.17.71-.03.26-.03.47,0,.72,0,.03.01.07.02.1.53.3,1.12.58,1.61.88,3.01,1.93,6.81,3.91,10.11,5.4,11.04,5.91,23.61,6.92,35.73,9.37,4.86.96,9.4,1.79,14.18,3.06,5.32,1.32,12.2,3.41,17.68,2.52,5.55-.85,6.44-6.43,2.48-10.07-2.86-2.82-6.51-4.69-9.57-7.28-8.17-6.41-10.65-17.12-16.11-25.37-4.98-7.39-12.39-12.92-20.04-17.38-14.24-11.54-26.76-5.1-26.58,12.21.04,3.5-3.25,6.08-5.34,9.28-1.87,3.05-5.69,7.82-5.2,11.5,1.21-1.2,2.98-2.71,5.47-4.59,1.23-.93,3.57-.06,4.88-.06.4-.07.73-.25.83-.69.39-2.65-.65-5.91-.5-8.75.9-4.9,7.82-6.23,3.81,3.64l5.57,4.96M988.87,407.49l.1-.14c4.29-5.21,13.77,3.39,8.75,8.15-4.34,3.34-11.31-3.51-8.85-8.01ZM973.25,395.08c1.75-4.92,5.34-11.39,5.16-5.8.05,1.97-.71,4.1-.61,5.98l4.05,1.46c-.9,1.06-2.43,2.02-3.42,3.01-.15.18-.22.3-.14.49.19.45,2.6,1.55,1.9,2.53-.97,1.56-3.06,2.69-4.79,2.99l-2.16-10.67ZM1030.72,441.92l-.08.05c-9.39,1.69-18.31-5.74-27.07-8.76-4-1.55-8.23-2.52-12.47-3.12-3.51-.56-7.15-.76-10.37-2.46-3.18-1.54-4.57-5.55-.18-6.22,2.3-.32,4.5.38,6.66,1.03,6.61,2.72,14.15,2.56,20.71,5.02,5.52,2.36,9.42,7.65,14.91,10,1.19.71,9.01,3.09,7.9,4.47Z"/>
    <path d="M973.02,396.52"/>
    <path d="M971.24,399.06"/>
    <path d="M975.87,394.82"/>
    <path d="M956.95,378.46c-1.79-.65-4.75-.33-7.13-.28-11.46.43-22.81,3.03-20.39,15.1.91,6.17,1.6,12.26,7.61,17.68,1.21.97,2.54,2.04,4.11,2.06,1.75-.2,1.63-2.56,1.71-3.97.09-5.7.28-11.59.63-15.49.25-2.85.58-4.69,1-4.74.78-.1,1.58,6.16,1.82,7.88.52,3.74.78,7.37,1.25,11.27.06,1.2,1.36,4.98,2.53,3.7.83-1.54,2.76-8.42,3.72-11.54,1.22-4.12,2.18-7.54,3.33-11.65.66-2.37,1.23-4.46,1.57-5.81.46-1.67.47-3.4-1.6-4.16l-.15-.06Z"/>
  </g>
  <path d="M919.9,437.6c.53,5.92-2.48,4.3-4.57.96-2.54-3.81-3.35-2.38-2.48,1.32.88,4.43,4.08,8.78,4.43,13.36-.32,3.45-4.29,1.8-7.11.18-1.89-1.15-3.38-2.56-4.18-4.44-1-2.21-.74-4.79-1.26-5.93-.13-.16-.16-.11-.28-.08-.22.11-.52.56-.88,1.27-4.17,9.16-11.38,21.47-1.65,29.06,4.43,3.45,10.87,2.1,13.71-2.6,1.28-1.72,2.51-4.24,4.89-4.26,2.93.08,6.17,3.37,8.03,5.75,1.63,2.14,3.46,4.21,5.98,5.16,1.56.68,3.46,1.09,4.77,2.09,2.7,2.65-5.27,3.24-6.82,3.5-10.22,1.28-21.02,3.02-30.43.75-1.67-.25-5.99-1.84-6.57.18.37,2.7,5.69,4.39,8.56,4.73,4.69.98,11.81-.92,14.8,3.62.74,1.31.54,2.69-.49,3.25-2.15,1.12-5.99-.5-8.01,1.24-2.59,2.67,1.54,6.08,4.35,6,3.01.23,5.79-1.95,7.08-4.78,1.13-2.17,1.73-5.59,3.2-7.36,4.68-4.3,4,9.12,3.68,11.65-.29,4.67-3.03,9.03-7.33,11.08-10.37,5.24-25.21-13.92-29.2-22.1-6.23-13.13-6.34-29.36-.92-42.21,5.32-12.95,15.84-23.75,30.2-29.59,3.39-1.34,7.18-2.7,10.79-1.94,3.96.84,7.52,4.2,10.69,6.78,1.74,1.67,4.81,3.32,4.73,5.96-.8,2.57-8.56,2.93-11.66,3.77-3.57.54-8.59,2.12-11.31.64-1.3-.66-2.31-2.02-3.35-2.92-2.65-1.94-1.64,3.84-1.41,5.71l.02.19Z"/>
  <path d="M916.03,587.35c4.54-3.9,9.73-8.52,10-14.98,4.11,2.57-1.1,6.05.01,11.47.36,1.74,4.99,8.86,5.97,4.04l-4.98-5.51,12.48,7.01,3.03-4.02c1.85,4.69,7.53,4.64,11.76,3.77,6.98-1.44,14.74-8.5,16.46-15.52.95-3.9,1.27-15.6-1.18-18.29-1.66-1.82-8.66-2.18-7.57-5.45.52-1.54,9.28-3.05,11.35-2.34,4.79,1.66,5.2,24.91,3.68,29.84l7.99-11.99h-4.01c-.7-11.3-.77-24.34-15.46-20.97-2.95.68-7.37,5.12-3.37-3.38,1.1-2.34,15.57-23.44,16.87-24.14,1.18-.63,2.67-.52,3.97-.53-2.84-2.75-1.06-6.52-.51-9.98,43.08,42.87-16.25,116.62-66.49,80.98ZM989.01,557.36c2.78-8.82,7.59-19.64.54-27.58-5.94.1-14.41-2.29-16.52,5.59,21.88-11.36,17.3,3.67,15.26,18.78-.15,1.08-1.1,3.45.72,3.21ZM983.74,535.64c-.71-.69-3.93-1.73-4.7.23l4.97,6.5c.55-2.14,1.62-4.89-.27-6.72Z"/>
  <path d="M931.02,485.37c8.15,1.19,17.12-3.47,23.99,2.51l-17,1.5c-1.12,3.08,2.06,2.55,2.11,4.46.21,7.66-3.73,12.29,2.64,20.29,12.41,15.58,26.77-6.59,13.26-16.75,1.45,5.52,1.06,4.22-2.99,7.5l4.97-.49c1.29,9.03-4.93,16.53-11.99,7.49-4.35-5.56-4.33-12.71-3.02-19,18.93-10.57,29.67,12.22,19.45,27.44-1.51,2.25-9.22,10.02-11.77,9.84-5.02-.36-20.34-12.06-27.66-11.79l.62-2.08c3.31.03,7.38-7.15,7.38-9.4v-21.5ZM955.02,497.37l-6.09.65-.91,10.34,1.97-.47c-1.51-2.04-1.06-3.9.13-5.91,1.92-3.24,5.15-1.33,4.89-4.6Z"/>
  <path d="M929.9,552.56c.44.27-.55,2.24,1.11,1.8,3.34-12.21-9.69-14.55-14.55-4.06-3.43,7.4-.53,15.75,6.55,19.57l-4.17,7.82c-1.5.93-4.93,7.2-6.3,6.66-3.51-1.38,2.85-8.81,1.48-11.98-3.92-.39-1.1,8.38-6.03,6.53-10.17-15.4-3.2-49.26,20.04-44.04,16.96,3.81,11.12,29.57,0,24.02-5.02-2.5-1.3-8.25,1.88-6.32Z"/>
  <path d="M884.67,477.62c1.25,10.95,8.42,22.03,13.16,32.39.42,1.08.79,2.08-.58,1.73-1.71-.58-3.48-1.91-5.3-2.35-2.38-.68-7.41,2.78-8.58.67-1.81-3.47,1.44-13.86,1.24-18.74-.14-.93.19-3.82-1.37-2.75-1.46.85-10.11,7.95-10.82,3.82-1.21-9.69,2.39-23.31,7.94-31.15,2.43-3.45,4.4-3.19,4.24,1.29-.06,5.03-.49,10.34.04,14.91l.02.2Z"/>
  <path d="M968.75,563.11c-5.58,1.84-7.37,6.95-11.82,10.67-7.2,6.02-24.84,14.9-27.98,1.09l1.53-2.24c13.06,3.41,26.91-2.27,29.6-16.23l9.68,4.45-1.01,2.26Z"/>
  <path d="M979.95,505.3c-3.87,1.98-4.81,9.89-7.08,14.42-2.23,4.45-8.22,14.29-12.33,16.71-2.74,1.61-5.01-.82-4.42-3.36.37-1.59,7.07-6.85,8.72-9.38,7.06-10.78,5.9-20.45.18-31.33,6.02,2.44,10.69,6.79,14.97,11.53l-.05,1.41Z"/>
  <path d="M892.49,417.89l16.45-1.75c.04-2.05-3.56-8.84-1.22-10.13l11.58,5.98,2.95-13.38,12.07,11.76c-5.04,7.07-10.67,5.57-16.38,7.27-7.5,2.23-21.23,10.32-25.45.25Z"/>
  <path d="M891.02,437.38c-3.73,5.04-5.23,13.22-8.12,18.16-1.72,2.95-10.23,9.48-12.29,13.33-.24-6,2.27-13.28,8.4-17.01l-10.15-1.11c4.79-16.37,19.24-12.65,22.16-13.37Z"/>
  <path d="M901.29,470.11c-3.72-4.2-1.41-18.29,8.71-14.21,10.77,4.34-.17,23.87-8.71,14.21ZM909.06,460.36h-4.09s0,7.01,0,7.01h4.09s0-7.01,0-7.01Z"/>
  <path d="M970.01,565.37c.06,10.73-15.48,26.38-25.99,18.49l12.32-5.67,13.67-12.82Z"/>
  <path d="M904.02,424.38c-3.66,4.59-14.81,14.25-20.52,9.01-1.34-1.23-5.98-8.45-2.55-9.01,7.1-1.16,16,1.46,23.07,0Z"/>
  <path class="st0" d="M989.01,557.36c-1.82.23-.86-2.14-.72-3.21,2.04-15.12,6.62-30.14-15.26-18.78,2.1-7.87,10.58-5.48,16.52-5.59,7.05,7.95,2.25,18.77-.54,27.58Z"/>
  <path class="st0" d="M983.74,535.64c1.89,1.84.82,4.59.27,6.72l-4.97-6.5c.76-1.95,3.98-.92,4.7-.23Z"/>
  <path class="st0" d="M955.02,497.37c.26,3.28-2.97,1.37-4.89,4.6-1.19,2.01-1.64,3.87-.13,5.91l-1.97.47.91-10.34,6.09-.65Z"/>
  <rect class="st0" x="904.97" y="460.36" width="4.09" height="7.01"/>
</svg>